<svg aria-hidden="true" style="position: absolute; width: 0; height: 0; overflow: hidden;" version="1.1" xmlns="http://www.w3.org/2000/svg" xmlns:xlink="http://www.w3.org/1999/xlink">
<defs>
<symbol id="forward" viewBox="0 0 32 32">
<title>forward</title>
<path d="M31.622 14.772c-0.079-0.118-0.158-0.237-0.276-0.315-0.118-0.118-0.197-0.197-0.315-0.276l-12.656-8.714c-0.513-0.355-1.065-0.434-1.617-0.355-0.552 0.118-1.065 0.394-1.38 0.907-0.118 0.197-0.237 0.394-0.276 0.591-0.039 0.158-0.079 0.315-0.079 0.473v6.387l-11.671-8.004c-0.513-0.355-1.065-0.434-1.617-0.355-0.552 0.118-1.065 0.394-1.38 0.907-0.118 0.197-0.237 0.394-0.276 0.591-0.039 0.158-0.079 0.315-0.079 0.473v17.664c0 0.591 0.237 1.143 0.631 1.538s0.946 0.631 1.538 0.631c0.237 0 0.513-0.039 0.71-0.118l12.144-8.28v6.23c0 0.591 0.237 1.143 0.631 1.538s0.946 0.631 1.538 0.631c0.237 0 0.513-0.039 0.71-0.118 0.237-0.079 0.434-0.197 0.591-0.355l12.578-8.674c0.513-0.355 0.789-0.867 0.907-1.38 0.079-0.552-0.039-1.143-0.355-1.617zM14.864 16.073l-12.617 8.714c-0.039 0-0.039 0.039-0.079 0.039h-0.079c-0.039 0-0.079 0-0.079-0.039-0.039-0.039-0.039-0.039-0.039-0.079v-17.546c0-0.039 0.039-0.039 0.079-0.039h0.079l12.656 8.753c0 0.039 0.039 0.079 0 0.079 0.118 0.079 0.079 0.118 0.079 0.118zM29.887 16.073l-12.578 8.714c-0.039 0-0.039 0.039-0.079 0.039h-0.079c-0.039 0-0.079 0-0.079-0.039-0.039-0.039-0.039-0.039-0.039-0.079v-17.546c0-0.039 0.039-0.039 0.079-0.039h0.079l6.348 4.377 6.309 4.377c0 0.039 0.039 0.079 0 0.079 0.079 0.079 0.079 0.118 0.039 0.118z"></path>
</symbol>
<symbol id="clock" viewBox="0 0 32 32">
<title>clock</title>
<path d="M16 32c-8.823 0-16-7.177-16-16s7.177-16 16-16 16 7.177 16 16-7.177 16-16 16zM16 2c-7.72 0-14 6.28-14 14s6.28 14 14 14 14-6.28 14-14-6.28-14-14-14z"></path>
<path d="M23 24.667c-0.001 0-0.002 0-0.002 0-0.275 0-0.525-0.112-0.704-0.293l-7-7c-0.181-0.181-0.293-0.431-0.293-0.706v-9.334c0-0.552 0.448-1 1-1s1 0.448 1 1v8.919l6.707 6.707c0.391 0.391 0.391 1.024 0 1.415-0.18 0.181-0.429 0.293-0.704 0.293-0.001 0-0.002 0-0.002 0h0z"></path>
</symbol>
<symbol id="arrows" viewBox="0 0 32 32">
<title>arrows</title>
<path d="M26.012 12.829c0.311 0.309 0.814 0.307 1.122-0.005l4.635-4.675c0.308-0.31 0.307-0.811-0.002-1.12l-4.636-4.635c-0.31-0.31-0.812-0.31-1.122 0s-0.31 0.812 0 1.122l3.281 3.281h-4.767c-2.319 0.006-4.379 1.111-5.687 2.821l-0.013 0.017-3.848 5.096-3.848-5.096c-1.321-1.728-3.381-2.833-5.699-2.839h-4.636c-0.438 0-0.794 0.355-0.794 0.794s0.355 0.794 0.794 0.794h4.634c1.804 0.005 3.406 0.864 4.424 2.194l0.010 0.013 4.12 5.457-4.12 5.457c-1.027 1.344-2.63 2.203-4.433 2.208h-4.635c-0.438 0-0.794 0.355-0.794 0.794s0.355 0.794 0.794 0.794h4.634c2.319-0.006 4.379-1.111 5.687-2.821l0.013-0.017 3.848-5.096 3.848 5.096c1.321 1.728 3.381 2.833 5.699 2.839h4.768l-3.281 3.281c-0.145 0.144-0.235 0.343-0.235 0.564 0 0.073 0.010 0.143 0.028 0.21l-0.001-0.006c0.093 0.342 0.401 0.589 0.767 0.589 0.22 0 0.42-0.090 0.564-0.235l4.635-4.636c0.309-0.309 0.31-0.809 0.003-1.12l-4.636-4.675c-0.144-0.149-0.346-0.242-0.57-0.242-0.071 0-0.139 0.009-0.205 0.027l0.006-0.001c-0.345 0.091-0.595 0.4-0.595 0.768 0 0.221 0.091 0.422 0.237 0.566l0 0 3.294 3.322h-4.778c-1.804-0.005-3.406-0.864-4.424-2.194l-0.010-0.013-4.12-5.457 4.12-5.457c1.027-1.344 2.63-2.203 4.433-2.208h4.779l-3.294 3.322c-0.309 0.311-0.307 0.814 0.005 1.122z"></path>
</symbol>
<symbol id="compass" viewBox="0 0 32 32">
<title>compass</title>
<path d="M14.259 16.641l-3.483 6.963 6.966-3.48 3.482-6.964-6.964 3.482zM16.824 19.205l-3.294 1.646 1.647-3.293 3.294-1.646-1.647 3.293z"></path>
<path d="M16 8.618c-5.435 0-9.84 4.406-9.84 9.84s4.406 9.84 9.84 9.84 9.84-4.406 9.84-9.84c0-5.435-4.406-9.84-9.84-9.84zM16 27.067c-4.747 0-8.609-3.862-8.609-8.609s3.862-8.609 8.609-8.609 8.609 3.862 8.609 8.609-3.862 8.609-8.609 8.609z"></path>
<path d="M18.279 5.123c0.491-0.543 0.799-1.255 0.799-2.045 0-1.7-1.378-3.078-3.078-3.078s-3.078 1.378-3.078 3.078c0 0.79 0.308 1.502 0.799 2.045-6.392 1.085-11.263 6.634-11.263 13.335 0 7.479 6.063 13.542 13.542 13.542s13.542-6.063 13.542-13.542c0-6.701-4.871-12.251-11.263-13.335zM16 1.231c1.018 0 1.847 0.829 1.847 1.847 0 1-0.799 1.811-1.791 1.841-0.018 0-0.037-0.002-0.055-0.002s-0.037 0.002-0.055 0.002c-0.992-0.030-1.791-0.841-1.791-1.841 0-1.018 0.829-1.847 1.847-1.847zM16 30.769c-6.788 0-12.311-5.523-12.311-12.311s5.523-12.311 12.311-12.311 12.311 5.523 12.311 12.311-5.523 12.311-12.311 12.311z"></path>
</symbol>
<symbol id="globe" viewBox="0 0 32 32">
<title>global</title>
<path d="M16 0c-8.822 0-16 7.178-16 16s7.178 16 16 16 16-7.178 16-16-7.178-16-16-16zM15.063 7.854c-1.426-0.061-2.838-0.262-4.186-0.588 0.215-0.51 0.449-1 0.701-1.465 1.034-1.905 2.303-3.241 3.485-3.726zM15.063 9.73v5.332h-5.856c0.082-2.081 0.437-4.148 1.024-6.027 1.555 0.392 3.187 0.629 4.832 0.694zM15.063 16.938v5.332c-1.645 0.066-3.277 0.303-4.832 0.694-0.587-1.879-0.941-3.946-1.024-6.027zM15.063 24.146v5.778c-1.183-0.484-2.452-1.821-3.485-3.726-0.252-0.464-0.486-0.954-0.701-1.465 1.348-0.326 2.76-0.526 4.186-0.588zM16.938 24.146c1.426 0.061 2.838 0.262 4.186 0.588-0.215 0.51-0.449 1-0.701 1.465-1.034 1.905-2.303 3.241-3.485 3.726zM16.938 22.27v-5.332h5.856c-0.082 2.081-0.437 4.148-1.024 6.027-1.555-0.392-3.187-0.629-4.832-0.694zM16.938 15.063v-5.332c1.645-0.066 3.277-0.303 4.832-0.694 0.587 1.879 0.941 3.946 1.024 6.027zM16.938 7.854v-5.778c1.183 0.484 2.452 1.821 3.485 3.726 0.252 0.464 0.486 0.954 0.701 1.465-1.348 0.326-2.76 0.526-4.186 0.588zM22.071 4.907c-0.47-0.865-0.98-1.628-1.517-2.279 1.875 0.64 3.573 1.664 5 2.978-0.814 0.436-1.692 0.815-2.615 1.132-0.262-0.636-0.552-1.248-0.868-1.831zM9.929 4.907c-0.316 0.583-0.606 1.195-0.868 1.831-0.923-0.317-1.801-0.696-2.615-1.132 1.428-1.313 3.126-2.338 5-2.978-0.538 0.651-1.047 1.413-1.517 2.279zM8.427 8.5c-0.64 2.047-1.016 4.279-1.097 6.562h-5.423c0.201-3.047 1.371-5.834 3.206-8.052 1.018 0.584 2.133 1.084 3.314 1.49zM7.33 16.938c0.081 2.284 0.457 4.515 1.097 6.562-1.181 0.406-2.296 0.906-3.314 1.49-1.835-2.218-3.005-5.005-3.206-8.052zM9.061 25.262c0.262 0.636 0.552 1.248 0.868 1.831 0.47 0.865 0.979 1.628 1.517 2.279-1.875-0.64-3.572-1.664-5-2.978 0.814-0.436 1.692-0.815 2.615-1.132zM22.071 27.093c0.316-0.583 0.606-1.195 0.868-1.831 0.923 0.317 1.801 0.696 2.615 1.132-1.428 1.313-3.126 2.338-5 2.978 0.538-0.651 1.047-1.413 1.517-2.279zM23.573 23.5c0.64-2.047 1.016-4.279 1.097-6.562h5.423c-0.201 3.047-1.371 5.834-3.206 8.052-1.018-0.584-2.134-1.084-3.314-1.49zM24.67 15.063c-0.081-2.284-0.457-4.515-1.097-6.562 1.181-0.406 2.296-0.906 3.314-1.49 1.835 2.218 3.005 5.005 3.206 8.052z"></path>
</symbol>
<symbol id="safe" viewBox="0 0 32 32">
<title>safe</title>
<path d="M27.313 0h-22.625c-2.585 0-4.688 2.103-4.688 4.688v20.75c0 2.585 2.103 4.688 4.688 4.688v1.875h3.75v-1.875h15.125v1.875h3.75v-1.875c2.585 0 4.688-2.103 4.688-4.688v-20.75c0-2.585-2.103-4.688-4.688-4.688zM30.125 25.438c0 1.551-1.262 2.813-2.813 2.813h-22.625c-1.551 0-2.813-1.262-2.813-2.813v-20.75c0-1.551 1.262-2.813 2.813-2.813h22.625c1.551 0 2.813 1.262 2.813 2.813v20.75z"></path>
<path d="M3.75 3.75v22.625h24.5v-22.625h-24.5zM26.375 24.5h-20.75v-18.875h20.75v18.875z"></path>
<path d="M19.5 13.813c-0.689 0-1.25 0.561-1.25 1.25s0.561 1.25 1.25 1.25 1.25-0.561 1.25-1.25-0.561-1.25-1.25-1.25z"></path>
<path d="M19.5 10.063c-2.757 0-5 2.243-5 5s2.243 5 5 5 5-2.243 5-5-2.243-5-5-5zM19.5 18.188c-1.723 0-3.125-1.402-3.125-3.125s1.402-3.125 3.125-3.125 3.125 1.402 3.125 3.125-1.402 3.125-3.125 3.125zM8.813 8.5h1.875v13.125h-1.875z"></path>
</symbol>
<symbol id="settings" viewBox="0 0 32 32">
<title>settings</title>
<path d="M17.004 32h-2.008c-1.624 0-2.946-1.322-2.946-2.946v-0.679c-0.78-0.252-1.444-0.534-2.077-0.867l0.071 0.034-0.482 0.482c-1.166 1.168-3.034 1.133-4.167-0l-1.419-1.419c-1.134-1.133-1.167-3 0-4.167l0.481-0.481c-0.299-0.562-0.581-1.226-0.807-1.915l-0.026-0.091h-0.679c-1.624 0-2.946-1.322-2.946-2.946v-2.008c0-1.624 1.322-2.946 2.946-2.946h0.679c0.252-0.78 0.534-1.444 0.867-2.077l-0.034 0.071-0.482-0.481c-1.167-1.165-1.134-3.033 0-4.167l1.42-1.42c1.135-1.136 3.003-1.165 4.167 0l0.481 0.481c0.562-0.299 1.226-0.581 1.915-0.807l0.091-0.026v-0.679c0-1.624 1.322-2.946 2.946-2.946h2.008c1.624 0 2.946 1.321 2.946 2.946v0.679c0.78 0.252 1.444 0.534 2.077 0.867l-0.071-0.034 0.482-0.482c1.166-1.168 3.034-1.133 4.167 0l1.419 1.419c1.134 1.133 1.167 3.001-0 4.167l-0.481 0.481c0.299 0.562 0.581 1.226 0.807 1.915l0.026 0.091h0.679c1.624 0 2.946 1.322 2.946 2.946v2.008c0 1.624-1.322 2.946-2.946 2.946h-0.679c-0.252 0.78-0.534 1.444-0.867 2.077l0.034-0.071 0.482 0.482c1.167 1.165 1.134 3.033-0 4.167l-1.42 1.419c-1.135 1.137-3.003 1.165-4.166-0l-0.481-0.481c-0.562 0.299-1.226 0.581-1.915 0.807l-0.091 0.026v0.679c0 1.624-1.322 2.946-2.946 2.946zM10.357 25.573c0.824 0.497 1.777 0.904 2.787 1.172l0.077 0.017c0.408 0.108 0.703 0.473 0.703 0.908 0 0 0 0 0 0v0 1.384c0 0.59 0.48 1.071 1.071 1.071h2.008c0.59 0 1.071-0.48 1.071-1.071v-1.384c0 0 0-0 0-0 0-0.434 0.296-0.8 0.697-0.906l0.007-0.001c1.087-0.285 2.040-0.692 2.915-1.217l-0.050 0.028c0.136-0.082 0.301-0.131 0.477-0.131 0.259 0 0.493 0.105 0.663 0.275l0.98 0.981c0.423 0.423 1.102 0.413 1.514 0l1.42-1.42c0.411-0.411 0.425-1.090 0-1.514l-0.981-0.981c-0.17-0.17-0.275-0.404-0.275-0.663 0-0.176 0.049-0.341 0.133-0.481l-0.002 0.004c0.497-0.824 0.904-1.777 1.172-2.787l0.017-0.077c0.108-0.408 0.473-0.703 0.908-0.703 0 0 0 0 0 0h1.384c0.59 0 1.071-0.48 1.071-1.071v-2.008c0-0.59-0.48-1.071-1.071-1.071h-1.384c0 0 0 0 0 0-0.434 0-0.8-0.296-0.906-0.697l-0.001-0.007c-0.285-1.087-0.692-2.040-1.217-2.915l0.028 0.050c-0.082-0.136-0.131-0.301-0.131-0.477 0-0.259 0.105-0.493 0.275-0.663l0.981-0.981c0.424-0.423 0.413-1.102 0-1.514l-1.42-1.42c-0.412-0.412-1.091-0.424-1.514-0l-0.981 0.981c-0.17 0.17-0.404 0.275-0.663 0.275-0.176 0-0.341-0.049-0.482-0.133l0.004 0.002c-0.824-0.497-1.777-0.904-2.787-1.172l-0.077-0.017c-0.408-0.108-0.703-0.473-0.703-0.908 0 0 0-0 0-0v0-1.384c0-0.59-0.48-1.071-1.071-1.071h-2.008c-0.59 0-1.071 0.48-1.071 1.071v1.384c0 0 0 0 0 0 0 0.434-0.296 0.8-0.697 0.906l-0.007 0.001c-1.087 0.285-2.040 0.692-2.915 1.217l0.050-0.028c-0.136 0.082-0.301 0.131-0.477 0.131-0.259 0-0.493-0.105-0.663-0.275l-0.98-0.981c-0.423-0.423-1.102-0.413-1.514-0l-1.42 1.42c-0.411 0.411-0.425 1.090-0 1.514l0.981 0.981c0.17 0.17 0.275 0.404 0.275 0.663 0 0.176-0.048 0.341-0.133 0.481l0.002-0.004c-0.497 0.824-0.904 1.777-1.172 2.787l-0.017 0.077c-0.108 0.408-0.473 0.703-0.908 0.703 0 0 0 0 0 0h-1.384c-0.59 0-1.071 0.48-1.071 1.071v2.008c0 0.59 0.48 1.071 1.071 1.071h1.384c0 0 0 0 0 0 0.434 0 0.8 0.296 0.906 0.697l0.001 0.007c0.285 1.087 0.692 2.040 1.217 2.915l-0.028-0.050c0.082 0.136 0.131 0.301 0.131 0.477 0 0.259-0.105 0.493-0.275 0.663l-0.981 0.981c-0.424 0.423-0.413 1.102-0 1.514l1.42 1.42c0.412 0.412 1.091 0.424 1.514 0l0.981-0.981c0.223-0.223 0.687-0.412 1.14-0.144z"></path>
<path d="M16 22.962c-3.839 0-6.963-3.123-6.963-6.963s3.123-6.963 6.963-6.963 6.962 3.123 6.962 6.963-3.123 6.963-6.963 6.963zM16 10.912c-2.805 0-5.088 2.282-5.088 5.088s2.282 5.087 5.088 5.087 5.087-2.282 5.087-5.088-2.282-5.088-5.088-5.088z"></path>
</symbol>
<symbol id="mail" viewBox="0 0 32 32">
<title>mail</title>
<path d="M29 4h-26c-1.654 0-3 1.346-3 3v18c0 1.654 1.346 3 3 3h26c1.654 0 3-1.346 3-3v-18c0-1.654-1.346-3-3-3zM29 6c0.136 0 0.265 0.028 0.383 0.077l-13.383 11.599-13.383-11.599c0.113-0.049 0.245-0.077 0.383-0.077h0zM29 26h-26c-0.552 0-1-0.448-1-1v-16.81l13.345 11.565c0.188 0.163 0.422 0.244 0.655 0.244s0.467-0.081 0.655-0.244l13.345-11.565v16.81c-0 0.552-0.448 1-1 1z"></path>
</symbol>
<symbol id="phone" viewBox="0 0 32 32">
<title>phone</title>
<path d="M29.432 21.004c-1.959 0-3.883-0.306-5.706-0.909-0.909-0.31-1.944-0.069-2.537 0.535l-3.598 2.716c-4.173-2.227-6.743-4.797-8.94-8.938l2.636-3.504c0.685-0.684 0.931-1.683 0.636-2.621-0.605-1.832-0.912-3.755-0.912-5.715 0-1.416-1.152-2.568-2.568-2.568h-5.877c-1.416 0-2.568 1.152-2.568 2.568 0 16.229 13.203 29.432 29.432 29.432 1.416 0 2.568-1.152 2.568-2.568v-5.86c-0-1.416-1.152-2.568-2.568-2.568zM30.222 29.432c0 0.436-0.354 0.79-0.79 0.79-15.249 0-27.654-12.405-27.654-27.654 0-0.436 0.354-0.79 0.79-0.79h5.877c0.436 0 0.79 0.354 0.79 0.79 0 2.15 0.338 4.26 0.998 6.26 0.092 0.295 0.017 0.601-0.281 0.912l-3.056 4.047c-0.112 0.147-0.18 0.334-0.18 0.536 0 0.147 0.036 0.285 0.099 0.407l-0.002-0.005c2.494 4.902 5.524 7.932 10.461 10.462 0.3 0.157 0.668 0.124 0.941-0.082l4.14-3.136c0.142-0.141 0.338-0.229 0.554-0.229 0.090 0 0.177 0.015 0.257 0.043l-0.006-0.002c2.013 0.665 4.123 1.002 6.273 1.002 0.436 0 0.79 0.354 0.79 0.79v5.86z"></path>
</symbol>
<symbol id="heart" viewBox="0 0 32 32">
<title>heart</title>
<path d="M16 30.22c-0.456 0-0.895-0.165-1.237-0.465-1.293-1.13-2.539-2.193-3.639-3.13l-0.006-0.005c-3.224-2.747-6.008-5.12-7.945-7.457-2.165-2.613-3.174-5.090-3.174-7.796 0-2.629 0.902-5.055 2.539-6.831 1.657-1.797 3.929-2.786 6.401-2.786 1.847 0 3.539 0.584 5.028 1.736 0.751 0.581 1.433 1.293 2.033 2.122 0.6-0.83 1.281-1.541 2.033-2.123 1.489-1.152 3.181-1.736 5.028-1.736 2.471 0 4.744 0.99 6.401 2.786 1.637 1.776 2.538 4.201 2.538 6.831 0 2.706-1.008 5.184-3.174 7.796-1.937 2.337-4.721 4.71-7.944 7.457-1.102 0.939-2.35 2.002-3.645 3.136-0.328 0.288-0.762 0.464-1.236 0.464-0 0-0 0-0.001 0h0zM8.939 3.624c-1.942 0-3.725 0.775-5.023 2.182-1.317 1.428-2.042 3.403-2.042 5.56 0 2.276 0.846 4.312 2.743 6.6 1.833 2.212 4.56 4.536 7.717 7.227l0.006 0.005c1.104 0.941 2.355 2.007 3.657 3.146 1.31-1.141 2.563-2.209 3.669-3.151 3.157-2.691 5.884-5.014 7.717-7.226 1.896-2.289 2.742-4.324 2.742-6.6 0-2.157-0.725-4.132-2.042-5.56-1.297-1.407-3.081-2.182-5.023-2.182-1.422 0-2.728 0.452-3.881 1.344-1.028 0.795-1.743 1.8-2.163 2.503-0.216 0.362-0.596 0.577-1.016 0.577s-0.801-0.216-1.016-0.577c-0.419-0.703-1.135-1.708-2.163-2.503-1.153-0.892-2.459-1.344-3.881-1.344z"></path>
</symbol>
<symbol id="basket" viewBox="0 0 32 32">
<title>basket</title>
<path d="M31.12 6.072c-0.593-0.678-1.439-1.051-2.381-1.051h-7.112v-4.083c0-0.518-0.42-0.938-0.938-0.938h-5.021c-0.518 0-0.938 0.42-0.938 0.938v4.083h-8.77l-0.229-1.719c-0.247-1.852-1.536-3.302-2.935-3.302h-1.674c-0.518 0-0.938 0.42-0.938 0.938s0.42 0.938 0.938 0.938h1.674c0.301 0 0.938 0.636 1.076 1.675l2.684 20.127c0.118 0.887 0.574 1.718 1.283 2.339 0.526 0.461 1.148 0.767 1.799 0.895-0.262 0.473-0.416 1.036-0.416 1.636 0 0.002 0 0.003 0 0.005v-0c0 1.901 1.547 3.448 3.448 3.448s3.448-1.547 3.448-3.448c0-0.001 0-0.002 0-0.002 0-0.574-0.141-1.114-0.39-1.589l0.009 0.019h4.913c-0.24 0.456-0.381 0.997-0.381 1.57 0 0.001 0 0.002 0 0.003v-0c0 1.901 1.547 3.448 3.448 3.448s3.448-1.547 3.448-3.448c0-0.566-0.138-1.101-0.381-1.573h2.456c0.518 0 0.938-0.42 0.938-0.938s-0.42-0.938-0.938-0.938h-18.912c-0.916 0-1.792-0.767-1.913-1.675l-0.196-1.471h18.511c0.895 0 1.779-0.342 2.488-0.963s1.165-1.452 1.284-2.339l1.345-10.085c0.125-0.934-0.134-1.822-0.727-2.499zM14.246 28.552c0 0.867-0.706 1.573-1.573 1.573s-1.573-0.706-1.573-1.573c0-0.867 0.706-1.573 1.573-1.573s1.573 0.706 1.573 1.573zM25.292 28.552c0 0.867-0.706 1.573-1.573 1.573s-1.573-0.706-1.573-1.573c0-0.867 0.706-1.573 1.573-1.573s1.573 0.706 1.573 1.573zM16.607 1.875h3.146v4.072c0 0.004-0 0.007-0 0.011s0 0.007 0 0.011v5.010c0 0.518 0.42 0.938 0.938 0.938h0.331l-2.785 2.763-2.785-2.763h0.219c0.518 0 0.937-0.42 0.937-0.938zM29.989 8.323l-1.344 10.086c-0.121 0.908-0.997 1.675-1.913 1.675h-18.761l-1.758-13.188h8.52v3.146h-1.558c-0 0-0 0-0 0-0.389 0-0.722 0.237-0.864 0.574l-0.002 0.006c-0.045 0.106-0.071 0.228-0.071 0.357 0 0.26 0.106 0.496 0.277 0.665l0 0 5.061 5.021c0.183 0.181 0.421 0.272 0.66 0.272s0.477-0.091 0.66-0.272l5.061-5.021c0.171-0.17 0.277-0.405 0.277-0.666 0-0.129-0.026-0.252-0.073-0.363l0.002 0.006c-0.144-0.343-0.478-0.58-0.867-0.58-0 0-0 0-0 0h-1.669v-3.146h7.112c0.394 0 0.738 0.146 0.97 0.411s0.331 0.626 0.279 1.016z"></path>
</symbol>
</defs>
</svg>
